<?xml version="1.0" standalone="no"?><!DOCTYPE svg PUBLIC "-//W3C//DTD SVG 1.1//EN" "http://www.w3.org/Graphics/SVG/1.1/DTD/svg11.dtd"><svg t="1760279605088" class="icon" viewBox="0 0 1024 1024" version="1.1" xmlns="http://www.w3.org/2000/svg" p-id="5013" xmlns:xlink="http://www.w3.org/1999/xlink" width="200" height="200"><path d="M600.586 291.476h-48.948c-4.143 0-7.5-3.358-7.5-7.5s3.357-7.5 7.5-7.5h48.948c4.143 0 7.5 3.358 7.5 7.5s-3.357 7.5-7.5 7.5z" fill="#7C5B75" p-id="5014"></path><path d="M576.112 315.95a7.5 7.5 0 0 1-7.5-7.5v-48.949c0-4.142 3.357-7.5 7.5-7.5s7.5 3.358 7.5 7.5v48.949a7.5 7.5 0 0 1-7.5 7.5zM155.371 147.156c-19.176 0-34.777-15.601-34.777-34.777 0-19.176 15.601-34.777 34.777-34.777 19.176 0 34.777 15.601 34.777 34.777 0 19.176-15.601 34.777-34.777 34.777z m0-54.554c-10.905 0-19.777 8.872-19.777 19.777 0 10.905 8.872 19.777 19.777 19.777 10.905 0 19.777-8.872 19.777-19.777 0-10.905-8.872-19.777-19.777-19.777zM896.174 190.021a7.5 7.5 0 0 1-7.5-7.5v-9.319c0-4.142 3.357-7.5 7.5-7.5s7.5 3.358 7.5 7.5v9.319a7.5 7.5 0 0 1-7.5 7.5zM896.174 250.391a7.5 7.5 0 0 1-7.5-7.5v-9.319c0-4.142 3.357-7.5 7.5-7.5s7.5 3.358 7.5 7.5v9.319a7.5 7.5 0 0 1-7.5 7.5zM931.019 215.094H921.7c-4.143 0-7.5-3.358-7.5-7.5s3.357-7.5 7.5-7.5h9.318c4.143 0 7.5 3.358 7.5 7.5s-3.357 7.5-7.499 7.5zM870.648 215.094h-9.319c-4.143 0-7.5-3.358-7.5-7.5s3.357-7.5 7.5-7.5h9.319c4.143 0 7.5 3.358 7.5 7.5s-3.357 7.5-7.5 7.5zM878.284 197.657a7.476 7.476 0 0 1-5.304-2.197l-6.589-6.59a7.498 7.498 0 0 1 0.001-10.606 7.498 7.498 0 0 1 10.606 0.001l6.589 6.59a7.498 7.498 0 0 1-0.001 10.606 7.473 7.473 0 0 1-5.302 2.196zM920.973 240.345a7.476 7.476 0 0 1-5.304-2.197l-6.589-6.589a7.501 7.501 0 0 1 10.607-10.607l6.589 6.589a7.5 7.5 0 0 1-0.001 10.607 7.47 7.47 0 0 1-5.302 2.197zM914.063 197.336a7.5 7.5 0 0 1-5.303-12.804l6.59-6.589a7.5 7.5 0 1 1 10.605 10.607l-6.59 6.589a7.47 7.47 0 0 1-5.302 2.197zM871.375 240.025a7.5 7.5 0 0 1-5.304-12.803l6.59-6.59a7.5 7.5 0 0 1 10.607 10.606l-6.59 6.59a7.474 7.474 0 0 1-5.303 2.197z" fill="#7C5B75" p-id="5015"></path><path d="M779.433 953.068H191.139c-54.653 0-98.958-40.615-98.958-90.716l49.131 15.925c38.412 12.451 78.472 18.487 118.69 17.834 5.35-0.087 10.708-0.16 16.07-0.16h419.729c5.404 0 10.804 0.069 16.197 0.149 40.74 0.604 81.306-5.648 120.151-18.477l46.24-15.271c0.002 50.101-44.303 90.716-98.956 90.716zM483.077 391.256c-215.886 0-390.896-11.715-390.896 104.434 0 85.423 133.534 186.134 311.203 205.933h0.062l-5.216-5.015c-17.956-17.261-17.956-45.506 0-62.767 17.956-17.261 47.337-17.261 65.293 0l14.512 13.951c2.774 2.667 7.272 2.667 10.046 0l14.565-14.001c17.956-17.261 47.337-17.261 65.293 0 17.956 17.261 17.956 45.506 0 62.767l-5.18 4.979h0.781C740.825 681.58 873.973 580.966 873.973 495.69c0-116.149-175.01-104.434-390.896-104.434z" fill="#FFE7D9" p-id="5016"></path><path d="M127.422 674.679c-0.326 0-0.654-0.013-0.984-0.039-6.883-0.536-12.028-6.55-11.492-13.433l10.562-135.599c0.536-6.883 6.551-12.038 13.433-11.491 6.883 0.536 12.028 6.55 11.492 13.433l-10.562 135.599c-0.511 6.551-5.987 11.53-12.449 11.53zM122.398 739.189c-0.441 0-0.887-0.023-1.335-0.071-6.865-0.729-11.839-6.885-11.11-13.75l1.753-16.51c0.729-6.865 6.885-11.842 13.75-11.109 6.865 0.729 11.839 6.885 11.11 13.75l-1.753 16.51c-0.681 6.416-6.104 11.18-12.415 11.18zM809.564 939.298H221.64c-32.852 0-64.531-13.791-86.916-37.836s-33.876-56.629-31.529-89.397l2.732-35.083c0.537-6.883 6.558-12.041 13.433-11.491 6.883 0.536 12.028 6.55 11.492 13.433l-2.727 35.006c-1.875 26.172 6.965 51.237 24.897 70.499s42.3 29.87 68.617 29.87h587.924c26.317 0 50.687-10.608 68.618-29.871 17.932-19.262 26.771-44.326 24.891-70.575l-22.3-286.303c-0.536-6.883 4.608-12.896 11.491-13.433 6.869-0.548 12.897 4.607 13.433 11.491l22.307 286.379c2.354 32.845-9.138 65.429-31.521 89.474-22.385 24.046-54.065 37.837-86.918 37.837z" fill="#FF7B57" p-id="5017"></path><path d="M596.056 682.758a7.5 7.5 0 0 1-0.862-14.95c179.036-20.966 303.805-125.751 303.805-206.681 0-9.815-1.255-18.896-3.73-26.992a7.5 7.5 0 0 1 14.344-4.387c2.911 9.519 4.387 20.076 4.387 31.378 0 46.15-33.48 96.681-91.857 138.635C761.5 643.344 681.522 672.8 596.94 682.705a7.58 7.58 0 0 1-0.884 0.053zM435.919 682.848c-0.289 0-0.58-0.017-0.873-0.051-84.763-9.826-164.931-39.255-225.735-82.867-58.534-41.982-92.104-92.574-92.104-138.803 0-27.359 8.691-49.879 25.833-66.937 50.94-50.691 168.828-50.113 318.077-49.377 17.699 0.087 36.001 0.177 54.485 0.177 14.365 0 28.549-0.038 42.513-0.076 99.292-0.268 185.052-0.5 248.364 12.686a7.5 7.5 0 1 1-3.059 14.685c-61.778-12.866-146.812-12.637-245.266-12.37-13.977 0.038-28.174 0.076-42.553 0.076-18.521 0-36.842-0.09-54.559-0.177-139.999-0.687-260.902-1.283-307.423 45.01-14.409 14.339-21.414 32.756-21.414 56.305 0 81.1 125.081 185.963 304.567 206.77a7.5 7.5 0 0 1-0.853 14.949z" fill="#FF7B57" p-id="5018"></path><path d="M893.033 537a12.45 12.45 0 0 1-5.418-1.242c-6.22-2.998-8.831-10.469-5.834-16.688 8.106-16.819 12.217-34.21 12.217-51.689 0-11.09-1.677-21.126-4.983-29.828-2.452-6.453 0.791-13.673 7.244-16.125 6.452-2.454 13.673 0.791 16.125 7.244 4.389 11.549 6.614 24.572 6.614 38.708 0 21.268-4.944 42.311-14.695 62.542a12.5 12.5 0 0 1-11.27 7.078z" fill="#FF7B57" p-id="5019"></path><path d="M873.842 410.43c-2.636 0-5.293-0.83-7.555-2.549-4.307-3.274-9.227-6.35-14.623-9.143-6.132-3.173-8.529-10.716-5.356-16.847 3.173-6.13 10.713-8.53 16.847-5.356 6.669 3.452 12.813 7.301 18.262 11.442 5.496 4.177 6.564 12.02 2.388 17.516a12.484 12.484 0 0 1-9.963 4.937z" fill="#FF7B57" p-id="5020"></path><path d="M138.955 538.599a12.499 12.499 0 0 1-11.205-6.943c-10.313-20.768-15.543-42.393-15.543-64.274 0-28.738 9.187-52.451 27.307-70.481 52.414-52.156 171.221-51.571 321.628-50.833 17.693 0.087 35.989 0.177 54.461 0.177 18.473 0 36.77-0.09 54.463-0.177 95.601-0.467 178.163-0.876 239.639 12.358 6.749 1.453 11.042 8.102 9.589 14.851s-8.104 11.041-14.851 9.589c-58.813-12.661-140.114-12.263-234.254-11.798-17.724 0.087-36.052 0.177-54.586 0.177-18.533 0-36.86-0.09-54.583-0.177-138.889-0.686-258.824-1.273-303.872 43.554-13.418 13.352-19.94 30.61-19.94 52.76 0 17.989 4.352 35.873 12.934 53.155 3.071 6.183 0.547 13.685-5.636 16.755a12.46 12.46 0 0 1-5.551 1.307z" fill="#FF7B57" p-id="5021"></path><path d="M515.636 752.447c-8.133 0-16.266-3.095-22.458-9.286l-67.727-67.727c-10.101-10.102-15.664-23.579-15.664-37.95 0-14.372 5.563-27.85 15.664-37.95 10.101-10.101 23.579-15.663 37.95-15.663 14.372 0 27.849 5.563 37.95 15.664l14.232 14.231 14.284-14.285v0.001-0.001c10.101-10.101 23.578-15.663 37.95-15.663 14.371 0 27.849 5.563 37.95 15.663 20.925 20.926 20.925 54.974 0 75.899l-18.857 18.857a7.398 7.398 0 0 1-0.678 0.784l-48.14 48.139c-6.191 6.192-14.323 9.287-22.456 9.287z m-52.235-153.576c-10.365 0-20.075 4.002-27.343 11.271-7.268 7.267-11.271 16.978-11.271 27.343 0 10.364 4.002 20.075 11.27 27.343l67.727 67.727c6.534 6.535 17.167 6.536 23.701 0l47.397-47.396a7.67 7.67 0 0 1 0.689-0.796l19.588-19.588c15.077-15.077 15.077-39.609 0-54.686-7.268-7.269-16.979-11.271-27.343-11.271-10.365 0-20.076 4.002-27.343 11.27v0.001l-14.564 14.564a14.511 14.511 0 0 1-10.327 4.277c-3.901 0-7.568-1.52-10.327-4.278l-14.512-14.511c-7.266-7.268-16.977-11.27-27.342-11.27z m71.77 5.914h0.01-0.01z" fill="#FF7B57" p-id="5022"></path><path d="M519.217 708.767a7.476 7.476 0 0 1-5.304-2.197 7.498 7.498 0 0 1 0.001-10.606l38.988-38.988a7.5 7.5 0 0 1 10.607 10.607l-38.99 38.988a7.477 7.477 0 0 1-5.302 2.196z" fill="#7C5B75" p-id="5023"></path><path d="M768.993 360.794c-6.903 0-12.5-5.597-12.5-12.5 0-134.989-112.565-253.401-240.891-253.401S274.711 213.305 274.711 348.294c0 6.903-5.597 12.5-12.5 12.5-6.904 0-12.5-5.597-12.5-12.5 0-70.319 28.36-140.94 77.809-193.755 24.582-26.255 52.991-46.959 84.438-61.538 33.078-15.333 67.948-23.108 103.644-23.108 35.695 0 70.566 7.775 103.645 23.108 31.447 14.578 59.856 35.282 84.438 61.538 49.448 52.815 77.809 123.437 77.809 193.755-0.001 6.904-5.598 12.5-12.501 12.5z" fill="#FF7B57" p-id="5024"></path><path d="M729.461 366.228c-6.903 0-12.5-5.596-12.5-12.5 0-113.035-93.308-212.188-199.679-212.188h-3.359c-106.371 0-199.679 99.153-199.679 212.188 0 6.904-5.596 12.5-12.5 12.5-6.903 0-12.5-5.596-12.5-12.5 0-59.487 23.929-119.479 65.65-164.593 20.78-22.47 44.775-40.203 71.316-52.707 28.015-13.197 57.525-19.889 87.712-19.889h3.359c30.187 0 59.697 6.691 87.712 19.889 26.542 12.503 50.536 30.236 71.316 52.707 41.722 45.114 65.65 105.106 65.65 164.593 0.002 6.903-5.595 12.5-12.498 12.5z" fill="#FF7B57" p-id="5025"></path><path d="M746.198 877.972H285.85c-45.407 0-90.029-7.978-132.626-23.711l-38.672-14.283a7.5 7.5 0 0 1 5.197-14.071l38.672 14.283c40.928 15.116 83.801 22.781 127.429 22.781h460.349c43.977 0 87.169-7.783 128.38-23.134l37.381-13.924a7.5 7.5 0 0 1 5.236 14.056l-37.381 13.924c-42.892 15.978-87.847 24.079-133.617 24.079z" fill="#FF7B57" p-id="5026"></path></svg>